<mxfile host="app.diagrams.net" modified="2023-08-04T18:01:22.964Z" agent="Mozilla/5.0 (Windows NT 10.0; Win64; x64) AppleWebKit/537.36 (KHTML, like Gecko) Chrome/115.0.0.0 Safari/537.36 Edg/115.0.1901.188" etag="72MC_fyhcX6tGr5cioaG" version="21.6.6" type="github">
  <diagram name="第 1 页" id="NUtxXekEzBuu321GC3n4">
    <mxGraphModel dx="511" dy="438" grid="1" gridSize="10" guides="1" tooltips="1" connect="1" arrows="1" fold="1" page="1" pageScale="1" pageWidth="827" pageHeight="1169" math="0" shadow="0">
      <root>
        <mxCell id="0" />
        <mxCell id="1" parent="0" />
        <mxCell id="Mj7DN6Mm6IV7MVb0Db-V-25" style="edgeStyle=orthogonalEdgeStyle;rounded=0;orthogonalLoop=1;jettySize=auto;html=1;exitX=0.5;exitY=1;exitDx=0;exitDy=0;entryX=0.5;entryY=0;entryDx=0;entryDy=0;" edge="1" parent="1" source="Mj7DN6Mm6IV7MVb0Db-V-3" target="Mj7DN6Mm6IV7MVb0Db-V-4">
          <mxGeometry relative="1" as="geometry" />
        </mxCell>
        <mxCell id="Mj7DN6Mm6IV7MVb0Db-V-3" value="&lt;font style=&quot;font-size: 18px;&quot;&gt;开始&lt;/font&gt;" style="rounded=1;whiteSpace=wrap;html=1;" vertex="1" parent="1">
          <mxGeometry x="140" y="60" width="160" height="60" as="geometry" />
        </mxCell>
        <mxCell id="Mj7DN6Mm6IV7MVb0Db-V-26" style="edgeStyle=orthogonalEdgeStyle;rounded=0;orthogonalLoop=1;jettySize=auto;html=1;exitX=0.5;exitY=1;exitDx=0;exitDy=0;entryX=0.5;entryY=0;entryDx=0;entryDy=0;" edge="1" parent="1" source="Mj7DN6Mm6IV7MVb0Db-V-4" target="Mj7DN6Mm6IV7MVb0Db-V-5">
          <mxGeometry relative="1" as="geometry" />
        </mxCell>
        <mxCell id="Mj7DN6Mm6IV7MVb0Db-V-4" value="&lt;font style=&quot;font-size: 18px;&quot;&gt;图像采集&lt;/font&gt;" style="rounded=0;whiteSpace=wrap;html=1;" vertex="1" parent="1">
          <mxGeometry x="140" y="160" width="160" height="60" as="geometry" />
        </mxCell>
        <mxCell id="Mj7DN6Mm6IV7MVb0Db-V-27" style="edgeStyle=orthogonalEdgeStyle;rounded=0;orthogonalLoop=1;jettySize=auto;html=1;exitX=0.5;exitY=1;exitDx=0;exitDy=0;entryX=0.5;entryY=0;entryDx=0;entryDy=0;" edge="1" parent="1" source="Mj7DN6Mm6IV7MVb0Db-V-5" target="Mj7DN6Mm6IV7MVb0Db-V-6">
          <mxGeometry relative="1" as="geometry" />
        </mxCell>
        <mxCell id="Mj7DN6Mm6IV7MVb0Db-V-5" value="&lt;font style=&quot;font-size: 18px;&quot;&gt;运动目标检测&lt;/font&gt;" style="rounded=0;whiteSpace=wrap;html=1;" vertex="1" parent="1">
          <mxGeometry x="140" y="260" width="160" height="60" as="geometry" />
        </mxCell>
        <mxCell id="Mj7DN6Mm6IV7MVb0Db-V-28" style="edgeStyle=orthogonalEdgeStyle;rounded=0;orthogonalLoop=1;jettySize=auto;html=1;exitX=0.5;exitY=1;exitDx=0;exitDy=0;entryX=0.5;entryY=0;entryDx=0;entryDy=0;" edge="1" parent="1" source="Mj7DN6Mm6IV7MVb0Db-V-6" target="Mj7DN6Mm6IV7MVb0Db-V-7">
          <mxGeometry relative="1" as="geometry" />
        </mxCell>
        <mxCell id="Mj7DN6Mm6IV7MVb0Db-V-34" style="edgeStyle=elbowEdgeStyle;rounded=0;orthogonalLoop=1;jettySize=auto;html=1;exitX=0;exitY=0.5;exitDx=0;exitDy=0;" edge="1" parent="1" source="Mj7DN6Mm6IV7MVb0Db-V-6">
          <mxGeometry relative="1" as="geometry">
            <mxPoint x="220" y="140" as="targetPoint" />
            <Array as="points">
              <mxPoint x="50" y="250" />
            </Array>
          </mxGeometry>
        </mxCell>
        <mxCell id="Mj7DN6Mm6IV7MVb0Db-V-35" value="&lt;font style=&quot;font-size: 18px;&quot;&gt;否&lt;/font&gt;" style="edgeLabel;html=1;align=center;verticalAlign=middle;resizable=0;points=[];" vertex="1" connectable="0" parent="Mj7DN6Mm6IV7MVb0Db-V-34">
          <mxGeometry x="-0.8754" y="-1" relative="1" as="geometry">
            <mxPoint x="120" y="263" as="offset" />
          </mxGeometry>
        </mxCell>
        <mxCell id="Mj7DN6Mm6IV7MVb0Db-V-6" value="&lt;font style=&quot;font-size: 18px;&quot;&gt;是否检测到目标？&lt;/font&gt;" style="rhombus;whiteSpace=wrap;html=1;" vertex="1" parent="1">
          <mxGeometry x="110" y="350" width="220" height="80" as="geometry" />
        </mxCell>
        <mxCell id="Mj7DN6Mm6IV7MVb0Db-V-29" style="edgeStyle=orthogonalEdgeStyle;rounded=0;orthogonalLoop=1;jettySize=auto;html=1;exitX=0.5;exitY=1;exitDx=0;exitDy=0;entryX=0.5;entryY=0;entryDx=0;entryDy=0;" edge="1" parent="1" source="Mj7DN6Mm6IV7MVb0Db-V-7" target="Mj7DN6Mm6IV7MVb0Db-V-8">
          <mxGeometry relative="1" as="geometry" />
        </mxCell>
        <mxCell id="Mj7DN6Mm6IV7MVb0Db-V-7" value="&lt;font style=&quot;font-size: 18px;&quot;&gt;运动轨迹判断&lt;/font&gt;" style="rounded=0;whiteSpace=wrap;html=1;" vertex="1" parent="1">
          <mxGeometry x="140" y="460" width="160" height="60" as="geometry" />
        </mxCell>
        <mxCell id="Mj7DN6Mm6IV7MVb0Db-V-17" style="edgeStyle=orthogonalEdgeStyle;rounded=0;orthogonalLoop=1;jettySize=auto;html=1;entryX=0.494;entryY=1;entryDx=0;entryDy=0;entryPerimeter=0;" edge="1" parent="1" source="Mj7DN6Mm6IV7MVb0Db-V-8" target="Mj7DN6Mm6IV7MVb0Db-V-10">
          <mxGeometry relative="1" as="geometry">
            <mxPoint x="500" y="530" as="targetPoint" />
          </mxGeometry>
        </mxCell>
        <mxCell id="Mj7DN6Mm6IV7MVb0Db-V-30" style="edgeStyle=orthogonalEdgeStyle;rounded=0;orthogonalLoop=1;jettySize=auto;html=1;exitX=0.5;exitY=1;exitDx=0;exitDy=0;entryX=0.5;entryY=0;entryDx=0;entryDy=0;" edge="1" parent="1" source="Mj7DN6Mm6IV7MVb0Db-V-8" target="Mj7DN6Mm6IV7MVb0Db-V-9">
          <mxGeometry relative="1" as="geometry" />
        </mxCell>
        <mxCell id="Mj7DN6Mm6IV7MVb0Db-V-8" value="&lt;font style=&quot;font-size: 18px;&quot;&gt;是否是运动目标？&lt;/font&gt;" style="rhombus;whiteSpace=wrap;html=1;" vertex="1" parent="1">
          <mxGeometry x="105" y="560" width="230" height="80" as="geometry" />
        </mxCell>
        <mxCell id="Mj7DN6Mm6IV7MVb0Db-V-9" value="&lt;font style=&quot;font-size: 18px;&quot;&gt;是干扰，舍弃&lt;/font&gt;" style="rounded=1;whiteSpace=wrap;html=1;" vertex="1" parent="1">
          <mxGeometry x="140" y="670" width="160" height="60" as="geometry" />
        </mxCell>
        <mxCell id="Mj7DN6Mm6IV7MVb0Db-V-20" style="edgeStyle=orthogonalEdgeStyle;rounded=0;orthogonalLoop=1;jettySize=auto;html=1;exitX=0.5;exitY=0;exitDx=0;exitDy=0;entryX=0.5;entryY=1;entryDx=0;entryDy=0;" edge="1" parent="1" source="Mj7DN6Mm6IV7MVb0Db-V-10" target="Mj7DN6Mm6IV7MVb0Db-V-11">
          <mxGeometry relative="1" as="geometry" />
        </mxCell>
        <mxCell id="Mj7DN6Mm6IV7MVb0Db-V-10" value="&lt;font style=&quot;font-size: 18px;&quot;&gt;运动轨迹预测&lt;/font&gt;" style="rounded=0;whiteSpace=wrap;html=1;" vertex="1" parent="1">
          <mxGeometry x="420" y="460" width="162" height="60" as="geometry" />
        </mxCell>
        <mxCell id="Mj7DN6Mm6IV7MVb0Db-V-21" style="edgeStyle=orthogonalEdgeStyle;rounded=0;orthogonalLoop=1;jettySize=auto;html=1;exitX=0.5;exitY=0;exitDx=0;exitDy=0;entryX=0.5;entryY=1;entryDx=0;entryDy=0;" edge="1" parent="1" source="Mj7DN6Mm6IV7MVb0Db-V-11" target="Mj7DN6Mm6IV7MVb0Db-V-12">
          <mxGeometry relative="1" as="geometry" />
        </mxCell>
        <mxCell id="Mj7DN6Mm6IV7MVb0Db-V-11" value="&lt;font style=&quot;font-size: 18px;&quot;&gt;计算坐标差值&lt;/font&gt;" style="rounded=0;whiteSpace=wrap;html=1;" vertex="1" parent="1">
          <mxGeometry x="422" y="360" width="160" height="60" as="geometry" />
        </mxCell>
        <mxCell id="Mj7DN6Mm6IV7MVb0Db-V-22" style="edgeStyle=orthogonalEdgeStyle;rounded=0;orthogonalLoop=1;jettySize=auto;html=1;exitX=0.5;exitY=0;exitDx=0;exitDy=0;" edge="1" parent="1" source="Mj7DN6Mm6IV7MVb0Db-V-12" target="Mj7DN6Mm6IV7MVb0Db-V-13">
          <mxGeometry relative="1" as="geometry" />
        </mxCell>
        <mxCell id="Mj7DN6Mm6IV7MVb0Db-V-12" value="&lt;font style=&quot;font-size: 18px;&quot;&gt;&lt;font style=&quot;font-size: 18px;&quot;&gt;输&lt;/font&gt;出PWM波控制舵机&lt;/font&gt;" style="rounded=0;whiteSpace=wrap;html=1;" vertex="1" parent="1">
          <mxGeometry x="406" y="260" width="192" height="60" as="geometry" />
        </mxCell>
        <mxCell id="Mj7DN6Mm6IV7MVb0Db-V-13" value="&lt;font style=&quot;font-size: 18px;&quot;&gt;云台系统实现跟踪&lt;/font&gt;" style="rounded=0;whiteSpace=wrap;html=1;" vertex="1" parent="1">
          <mxGeometry x="424" y="160" width="156" height="60" as="geometry" />
        </mxCell>
        <mxCell id="Mj7DN6Mm6IV7MVb0Db-V-14" style="edgeStyle=orthogonalEdgeStyle;rounded=0;orthogonalLoop=1;jettySize=auto;html=1;exitX=0.5;exitY=1;exitDx=0;exitDy=0;" edge="1" parent="1" source="Mj7DN6Mm6IV7MVb0Db-V-4" target="Mj7DN6Mm6IV7MVb0Db-V-4">
          <mxGeometry relative="1" as="geometry" />
        </mxCell>
        <mxCell id="Mj7DN6Mm6IV7MVb0Db-V-33" value="" style="edgeStyle=orthogonalEdgeStyle;orthogonalLoop=1;jettySize=auto;html=1;rounded=0;strokeColor=default;exitX=0.5;exitY=0;exitDx=0;exitDy=0;" edge="1" parent="1" source="Mj7DN6Mm6IV7MVb0Db-V-13">
          <mxGeometry width="80" relative="1" as="geometry">
            <mxPoint x="510" y="150" as="sourcePoint" />
            <mxPoint x="220" y="140" as="targetPoint" />
            <Array as="points">
              <mxPoint x="502" y="140" />
            </Array>
          </mxGeometry>
        </mxCell>
        <mxCell id="Mj7DN6Mm6IV7MVb0Db-V-36" value="&lt;font style=&quot;font-size: 18px;&quot;&gt;是&lt;/font&gt;" style="edgeLabel;html=1;align=center;verticalAlign=middle;resizable=0;points=[];" vertex="1" connectable="0" parent="1">
          <mxGeometry x="207.00037037037032" y="454" as="geometry">
            <mxPoint x="-6" y="-11" as="offset" />
          </mxGeometry>
        </mxCell>
        <mxCell id="Mj7DN6Mm6IV7MVb0Db-V-37" value="&lt;font style=&quot;font-size: 18px;&quot;&gt;否&lt;/font&gt;" style="edgeLabel;html=1;align=center;verticalAlign=middle;resizable=0;points=[];" vertex="1" connectable="0" parent="1">
          <mxGeometry x="87.37037037037032" y="374" as="geometry" />
        </mxCell>
        <mxCell id="Mj7DN6Mm6IV7MVb0Db-V-38" value="&lt;font style=&quot;font-size: 18px;&quot;&gt;是&lt;/font&gt;" style="edgeLabel;html=1;align=center;verticalAlign=middle;resizable=0;points=[];" vertex="1" connectable="0" parent="1">
          <mxGeometry x="352.0003703703703" y="594" as="geometry">
            <mxPoint x="-6" y="-11" as="offset" />
          </mxGeometry>
        </mxCell>
      </root>
    </mxGraphModel>
  </diagram>
</mxfile>
